<?xml version="1.0" encoding="utf-8"?>
<!-- Generator: Adobe Illustrator 24.0.1, SVG Export Plug-In . SVG Version: 6.00 Build 0)  -->
<svg version="1.1" id="Capa_1" xmlns="http://www.w3.org/2000/svg" xmlns:xlink="http://www.w3.org/1999/xlink" x="0px" y="0px"
	 viewBox="0 0 33 33" style="enable-background:new 0 0 33 33;" xml:space="preserve">
<style type="text/css">
	.st0{fill:#60AD28;}
</style>
<g>
	<path class="st0" d="M16.5,33C7.4,33,0,25.6,0,16.5S7.4,0,16.5,0S33,7.4,33,16.5S25.6,33,16.5,33z M16.5,2C8.5,2,2,8.5,2,16.5
		S8.5,31,16.5,31S31,24.5,31,16.5S24.5,2,16.5,2z"/>
	<path class="st0" d="M15,23.7c-0.2,0-0.5-0.1-0.7-0.3l-7-6.2c-0.4-0.4-0.4-1-0.1-1.4c0.4-0.4,1-0.5,1.4-0.1l6.2,5.5L25,9.6
		c0.4-0.4,1-0.5,1.4-0.1c0.4,0.4,0.5,1,0.1,1.4L15.7,23.4C15.5,23.6,15.3,23.7,15,23.7C15,23.7,15,23.7,15,23.7z"/>
</g>
</svg>
