<svg id="Capa_1" data-name="Capa 1" xmlns="http://www.w3.org/2000/svg" viewBox="0 0 1224 467.91"><defs><style>.cls-1{fill:#fff;}.cls-2{fill:#655b7d;}.cls-3{fill:#54bdc8;}.cls-4{fill:#eb6d1c;}.cls-5{fill:#e3342a;}.cls-6{fill:#724694;}.cls-7{fill:#f9b912;}</style></defs><title>Issabel-IVC-rgb-light</title><rect class="cls-1" width="1224" height="467.91"/><path class="cls-2" d="M130.91,137.86a24.27,24.27,0,1,1,24.27-24.27A24.3,24.3,0,0,1,130.91,137.86Zm0-45.63a21.36,21.36,0,1,0,21.36,21.36A21.38,21.38,0,0,0,130.91,92.24Z"/><path class="cls-2" d="M206.12,140.14a26.55,26.55,0,1,1,26.55-26.55A26.58,26.58,0,0,1,206.12,140.14Zm0-50.19a23.64,23.64,0,1,0,23.64,23.64A23.67,23.67,0,0,0,206.12,90Z"/><path class="cls-2" d="M130.91,214.52A26.55,26.55,0,1,1,157.46,188,26.58,26.58,0,0,1,130.91,214.52Zm0-50.19A23.64,23.64,0,1,0,154.55,188,23.67,23.67,0,0,0,130.91,164.33Z"/><path class="cls-3" d="M206.13,96.76a16.84,16.84,0,0,0-16.84,16.84h0a16.83,16.83,0,1,0,16.84-16.84Z"/><path class="cls-4" d="M281.31,134.13a20.53,20.53,0,0,0,0-41.06h0a20.54,20.54,0,0,0-20.54,20.54h0A20.52,20.52,0,0,0,281.31,134.13Z"/><path class="cls-5" d="M130.92,171.11A16.87,16.87,0,0,0,114.05,188h0a16.85,16.85,0,0,0,16.85,16.85h0a16.86,16.86,0,1,0,0-33.72Z"/><path class="cls-6" d="M206.13,167.44A20.54,20.54,0,0,0,185.59,188h0a20.53,20.53,0,1,0,20.54-20.54Z"/><path class="cls-2" d="M281.31,212.24A24.27,24.27,0,1,1,305.59,188,24.28,24.28,0,0,1,281.31,212.24Zm0-45.63A21.36,21.36,0,1,0,302.68,188,21.4,21.4,0,0,0,281.34,166.61Z"/><path class="cls-7" d="M130.93,241.81a20.54,20.54,0,0,0-20.54,20.54h0a20.52,20.52,0,0,0,20.52,20.52h0a20.53,20.53,0,1,0,0-41.06Z"/><path class="cls-2" d="M206.11,286.61a24.27,24.27,0,1,1,24.28-24.28A24.28,24.28,0,0,1,206.11,286.61Zm0-45.63a21.36,21.36,0,1,0,21.34,21.34A21.4,21.4,0,0,0,206.13,241Z"/><path class="cls-2" d="M206.11,361a24.27,24.27,0,1,1,24.28-24.28A24.28,24.28,0,0,1,206.11,361Zm0-45.63a21.36,21.36,0,1,0,21.34,21.34A21.4,21.4,0,0,0,206.13,315.36Z"/><path class="cls-2" d="M281.31,286.61a24.27,24.27,0,1,1,24.28-24.28A24.28,24.28,0,0,1,281.31,286.61Zm0-45.63a21.36,21.36,0,1,0,21.34,21.34A21.4,21.4,0,0,0,281.34,241Z"/><path class="cls-2" d="M394.22,286.14a2.34,2.34,0,0,1-2.47-2.47V120.44a2.34,2.34,0,0,1,2.47-2.47h27.95a2.34,2.34,0,0,1,2.47,2.47V283.67a2.34,2.34,0,0,1-2.47,2.47Z"/><path class="cls-2" d="M449.17,283.91l1.24-21.52c0-.74,1-1.24,2-1a155.47,155.47,0,0,0,28.19,2.72c17.56,0,20.28-1.73,20.28-14.1,0-7.42-4.21-11.13-23.74-24.48-20-13.36-27-20.28-27-36.85,0-27.95,14.84-37.34,47-37.34,11.87,0,25.47,1.24,33.14,2.72.74.25,1.24.49,1.24,1.73l-1.48,22a1.35,1.35,0,0,1-1.73,1,177.65,177.65,0,0,0-25.23-2.47c-15.58,0-20.77,1-20.77,11.62,0,8.66,4.2,11.38,23.74,23.49,21.76,13.85,27.7,23,27.7,38.33,0,31.66-17.31,38.83-48,38.83-13.6,0-27.2-1.24-35.12-2.72A1.93,1.93,0,0,1,449.17,283.91Z"/><path class="cls-2" d="M551.07,283.91l1.24-21.52c0-.74,1-1.24,2-1a155.45,155.45,0,0,0,28.19,2.72c17.56,0,20.28-1.73,20.28-14.1,0-7.42-4.2-11.13-23.74-24.48-20-13.36-27-20.28-27-36.85,0-27.95,14.84-37.34,47-37.34,11.87,0,25.47,1.24,33.14,2.72.74.25,1.24.49,1.24,1.73l-1.48,22a1.35,1.35,0,0,1-1.73,1A177.7,177.7,0,0,0,605,176.33c-15.58,0-20.77,1-20.77,11.62,0,8.66,4.21,11.38,23.74,23.49,21.76,13.85,27.7,23,27.7,38.33,0,31.66-17.31,38.83-48,38.83-13.6,0-27.2-1.24-35.12-2.72A1.92,1.92,0,0,1,551.07,283.91Z"/><path class="cls-2" d="M665.32,179.8c-1.48.25-3.46.25-3.71-1.24l-1.73-19c-.25-1.48,0-3,1.48-3.46,9.4-2.72,26.71-4.7,43.28-4.7,30.67,0,49.21,10.39,49.21,39.32v89.77c0,1.48-.49,2.72-3.22,3.71-8.65,2.72-26.21,4.45-43.28,4.45-44.52,0-57.87-8.41-57.87-36.85,0-25.23,5.69-36.6,42-41.05L720.72,207c1-.25,1.48-.49,1.48-1.48v-9.89c0-14.84-6.92-18.3-26.21-18.3A240.59,240.59,0,0,0,665.32,179.8Zm56.88,49a1.31,1.31,0,0,0-1.48-1.48H704.15c-17.81,0-23.25,3.22-23.25,21,0,17.56,4.45,19.54,24,19.54a86.12,86.12,0,0,0,15.58-1.24c1.48-.49,1.73-1,1.73-1.73Z"/><path class="cls-2" d="M781.31,283.42a3.18,3.18,0,0,1-2.23-2.72V106.84a2.34,2.34,0,0,1,2.47-2.47H809a2.34,2.34,0,0,1,2.47,2.47V151.6c0,1.24.49,2,2,2,3.46,0,15.58-2,24.73-2,40.06,0,53.42,20.28,53.42,64.3,0,48.47-12.86,72.71-64.05,72.71C810.5,288.61,788.73,286.63,781.31,283.42Zm30.17-22a2.38,2.38,0,0,0,1.73,2.47,78.68,78.68,0,0,0,14.1,1.24c26.21,0,30.42-10.64,30.42-47,0-35.12-6.68-42.78-29.18-42.78-6.68,0-12.61,1-15.33,2-1.48.5-1.73,1.48-1.73,2.72Z"/><path class="cls-2" d="M998.95,260.92c1.48-.25,3.46-.25,3.71,1.24l1.73,19c.25,1.48,0,3-1.48,3.46-9.4,2.72-26.71,4.7-43.28,4.7C929,289.36,910.41,279,910.41,250V160.26c0-1.48.49-2.72,3.22-3.71,8.66-2.72,26.21-4.45,43.28-4.45,44.52,0,57.87,8.41,57.87,36.85,0,25.23-5.69,36.6-42,41.05l-29.18,3.71c-1,.25-1.48.49-1.48,1.48v9.89c0,14.84,6.92,18.3,26.21,18.3A240.44,240.44,0,0,0,998.95,260.92Zm-56.88-49a1.31,1.31,0,0,0,1.48,1.48h16.57c17.81,0,23.25-3.22,23.25-21,0-17.56-4.45-19.54-24-19.54a86.12,86.12,0,0,0-15.58,1.24c-1.48.5-1.73,1-1.73,1.73Z"/><path class="cls-2" d="M1064.24,288.61c-20.53,0-30.91-7.17-30.91-30.17V107.09a2.41,2.41,0,0,1,2.47-2.72h27.45a2.41,2.41,0,0,1,2.47,2.72V254c0,7.91,3.22,10.39,10.39,10.39H1084a2.21,2.21,0,0,1,2.47,2.47l-.74,16.32a3.18,3.18,0,0,1-2.47,3A69.78,69.78,0,0,1,1064.24,288.61Z"/></svg>